<svg xmlns="http://www.w3.org/2000/svg" xmlns:xlink="http://www.w3.org/1999/xlink" width="500" zoomAndPan="magnify" viewBox="0 0 375 374.999991" height="500" preserveAspectRatio="xMidYMid meet" version="1.0"><defs><g/><clipPath id="f0c0add5a9"><path d="M 46.359375 15.644531 L 328.359375 15.644531 L 328.359375 359.039062 L 46.359375 359.039062 Z M 46.359375 15.644531 " clip-rule="nonzero"/></clipPath><clipPath id="98425b718a"><path d="M 80 15.589844 L 328.359375 15.589844 L 328.359375 292 L 80 292 Z M 80 15.589844 " clip-rule="nonzero"/></clipPath></defs><path fill="#fff3e4" d="M 57.617188 325.019531 C 57.617188 337.578125 67.820312 347.78125 80.363281 347.78125 L 311.402344 347.78125 C 304.476562 342.605469 299.992188 334.339844 299.992188 325.019531 C 299.992188 315.71875 304.476562 307.457031 311.398438 302.285156 L 80.363281 302.285156 C 67.820312 302.285156 57.617188 312.484375 57.617188 325.019531 " fill-opacity="1" fill-rule="nonzero"/><g clip-path="url(#f0c0add5a9)"><path fill="#005a2b" d="M 80.363281 291.027344 L 80.363281 15.644531 C 64.699219 15.644531 46.984375 28.332031 46.984375 44.011719 L 46.359375 326.175781 L 46.386719 326.136719 C 46.976562 344.378906 61.992188 359.039062 80.363281 359.039062 L 328.359375 359.039062 L 328.359375 347.78125 L 80.363281 347.78125 C 67.820312 347.78125 57.617188 337.578125 57.617188 325.019531 C 57.617188 312.484375 67.820312 302.285156 80.363281 302.285156 L 328.359375 302.285156 L 328.359375 291.027344 L 80.363281 291.027344 " fill-opacity="1" fill-rule="nonzero"/></g><g clip-path="url(#98425b718a)"><path fill="#6ea240" d="M 80.363281 15.644531 L 80.363281 291.027344 L 328.359375 291.027344 L 328.359375 15.644531 L 80.363281 15.644531 " fill-opacity="1" fill-rule="nonzero"/></g><g fill="#ffffff" fill-opacity="1"><g transform="translate(120.663455, 163.69802)"><g><path d="M 29.203125 0 L 29.203125 -10.828125 L 1.34375 -10.828125 L 1.34375 -21.90625 L 20.984375 -49.109375 L 40.546875 -49.109375 L 40.546875 -19.390625 L 48.9375 -19.390625 L 48.9375 -10.828125 L 40.546875 -10.828125 L 40.546875 0 Z M 13.515625 -19.390625 L 29.203125 -19.390625 L 29.203125 -41.125 Z M 13.515625 -19.390625 "/></g></g></g><g fill="#ffffff" fill-opacity="1"><g transform="translate(169.930198, 163.69802)"><g><path d="M 26.6875 0.5 C 18.1875 0.5 11.835938 -2.320312 7.640625 -7.96875 C 4.285156 -12.394531 2.609375 -17.769531 2.609375 -24.09375 C 2.609375 -30.863281 4.285156 -36.570312 7.640625 -41.21875 C 11.835938 -47.09375 18.1875 -50.03125 26.6875 -50.03125 C 35.132812 -50.03125 41.515625 -47.09375 45.828125 -41.21875 C 49.128906 -36.507812 50.78125 -30.800781 50.78125 -24.09375 C 50.78125 -17.820312 49.128906 -12.445312 45.828125 -7.96875 C 41.515625 -2.320312 35.132812 0.5 26.6875 0.5 Z M 26.6875 -7.96875 C 31 -7.96875 34.203125 -9.410156 36.296875 -12.296875 C 38.398438 -15.179688 39.453125 -19.113281 39.453125 -24.09375 C 39.453125 -29.40625 38.398438 -33.640625 36.296875 -36.796875 C 34.203125 -39.960938 31 -41.546875 26.6875 -41.546875 C 22.382812 -41.546875 19.179688 -39.960938 17.078125 -36.796875 C 14.984375 -33.640625 13.9375 -29.40625 13.9375 -24.09375 C 13.9375 -19.164062 15 -15.242188 17.125 -12.328125 C 19.25 -9.421875 22.4375 -7.96875 26.6875 -7.96875 Z M 26.6875 -7.96875 "/></g></g></g><g fill="#ffffff" fill-opacity="1"><g transform="translate(223.30949, 163.69802)"><g><path d="M 29.203125 0 L 29.203125 -10.828125 L 1.34375 -10.828125 L 1.34375 -21.90625 L 20.984375 -49.109375 L 40.546875 -49.109375 L 40.546875 -19.390625 L 48.9375 -19.390625 L 48.9375 -10.828125 L 40.546875 -10.828125 L 40.546875 0 Z M 13.515625 -19.390625 L 29.203125 -19.390625 L 29.203125 -41.125 Z M 13.515625 -19.390625 "/></g></g></g><g fill="#fff3e4" fill-opacity="1"><g transform="translate(86.531249, 207.118522)"><g><path d="M 6.953125 0.53125 C 5.878906 0.53125 4.785156 0.394531 3.671875 0.125 C 2.554688 -0.132812 1.625 -0.476562 0.875 -0.90625 L 1.03125 -4.90625 L 1.328125 -4.90625 L 2.234375 -3 C 2.503906 -2.445312 2.796875 -1.957031 3.109375 -1.53125 C 3.421875 -1.113281 3.851562 -0.789062 4.40625 -0.5625 C 4.789062 -0.363281 5.164062 -0.226562 5.53125 -0.15625 C 5.894531 -0.09375 6.300781 -0.0625 6.75 -0.0625 C 7.9375 -0.0625 8.878906 -0.382812 9.578125 -1.03125 C 10.273438 -1.675781 10.625 -2.503906 10.625 -3.515625 C 10.625 -4.472656 10.390625 -5.222656 9.921875 -5.765625 C 9.453125 -6.304688 8.695312 -6.832031 7.65625 -7.34375 L 6.453125 -7.859375 C 4.773438 -8.609375 3.457031 -9.46875 2.5 -10.4375 C 1.550781 -11.40625 1.078125 -12.691406 1.078125 -14.296875 C 1.078125 -15.441406 1.375 -16.4375 1.96875 -17.28125 C 2.570312 -18.125 3.40625 -18.769531 4.46875 -19.21875 C 5.539062 -19.664062 6.789062 -19.890625 8.21875 -19.890625 C 9.25 -19.890625 10.226562 -19.753906 11.15625 -19.484375 C 12.09375 -19.210938 12.90625 -18.84375 13.59375 -18.375 L 13.40625 -14.84375 L 13.109375 -14.84375 L 11.90625 -17.046875 C 11.582031 -17.734375 11.253906 -18.21875 10.921875 -18.5 C 10.585938 -18.78125 10.203125 -18.984375 9.765625 -19.109375 C 9.515625 -19.179688 9.28125 -19.234375 9.0625 -19.265625 C 8.851562 -19.296875 8.582031 -19.3125 8.25 -19.3125 C 7.25 -19.3125 6.40625 -19.019531 5.71875 -18.4375 C 5.03125 -17.863281 4.6875 -17.085938 4.6875 -16.109375 C 4.6875 -15.109375 4.953125 -14.3125 5.484375 -13.71875 C 6.015625 -13.125 6.789062 -12.59375 7.8125 -12.125 L 9.15625 -11.53125 C 11.03125 -10.707031 12.378906 -9.832031 13.203125 -8.90625 C 14.023438 -7.976562 14.4375 -6.78125 14.4375 -5.3125 C 14.4375 -3.59375 13.785156 -2.1875 12.484375 -1.09375 C 11.179688 -0.0078125 9.335938 0.53125 6.953125 0.53125 Z M 6.953125 0.53125 "/></g></g></g><g fill="#fff3e4" fill-opacity="1"><g transform="translate(101.81933, 207.118522)"><g><path d="M 7.953125 -14.546875 C 9.222656 -14.546875 10.304688 -14.285156 11.203125 -13.765625 C 12.109375 -13.253906 12.800781 -12.550781 13.28125 -11.65625 C 13.757812 -10.769531 14 -9.757812 14 -8.625 C 14 -8.40625 13.988281 -8.179688 13.96875 -7.953125 C 13.945312 -7.734375 13.90625 -7.535156 13.84375 -7.359375 L 5.109375 -7.359375 C 5.128906 -5.253906 5.503906 -3.734375 6.234375 -2.796875 C 6.972656 -1.867188 8.0625 -1.40625 9.5 -1.40625 C 10.476562 -1.40625 11.269531 -1.5625 11.875 -1.875 C 12.488281 -2.1875 13.0625 -2.644531 13.59375 -3.25 L 13.875 -3 C 13.269531 -1.914062 12.460938 -1.070312 11.453125 -0.46875 C 10.453125 0.132812 9.242188 0.4375 7.828125 0.4375 C 6.441406 0.4375 5.210938 0.140625 4.140625 -0.453125 C 3.066406 -1.046875 2.222656 -1.898438 1.609375 -3.015625 C 1.003906 -4.128906 0.703125 -5.460938 0.703125 -7.015625 C 0.703125 -8.617188 1.050781 -9.984375 1.75 -11.109375 C 2.457031 -12.234375 3.363281 -13.085938 4.46875 -13.671875 C 5.582031 -14.253906 6.742188 -14.546875 7.953125 -14.546875 Z M 7.859375 -13.96875 C 7.296875 -13.96875 6.8125 -13.796875 6.40625 -13.453125 C 6.007812 -13.109375 5.695312 -12.5 5.46875 -11.625 C 5.25 -10.757812 5.128906 -9.535156 5.109375 -7.953125 L 10.125 -7.953125 C 10.320312 -10.085938 10.242188 -11.625 9.890625 -12.5625 C 9.535156 -13.5 8.859375 -13.96875 7.859375 -13.96875 Z M 7.859375 -13.96875 "/></g></g></g><g fill="#fff3e4" fill-opacity="1"><g transform="translate(116.696602, 207.118522)"><g><path d="M 7.859375 0.4375 C 6.535156 0.4375 5.328125 0.148438 4.234375 -0.421875 C 3.148438 -1.003906 2.289062 -1.847656 1.65625 -2.953125 C 1.019531 -4.054688 0.703125 -5.410156 0.703125 -7.015625 C 0.703125 -8.597656 1.046875 -9.953125 1.734375 -11.078125 C 2.429688 -12.203125 3.363281 -13.0625 4.53125 -13.65625 C 5.695312 -14.25 6.972656 -14.546875 8.359375 -14.546875 C 9.492188 -14.546875 10.453125 -14.359375 11.234375 -13.984375 C 12.015625 -13.617188 12.609375 -13.140625 13.015625 -12.546875 C 13.429688 -11.953125 13.640625 -11.332031 13.640625 -10.6875 C 13.640625 -10.132812 13.472656 -9.707031 13.140625 -9.40625 C 12.804688 -9.101562 12.378906 -8.953125 11.859375 -8.953125 C 11.285156 -8.953125 10.820312 -9.15625 10.46875 -9.5625 C 10.125 -9.976562 9.921875 -10.519531 9.859375 -11.1875 C 9.835938 -11.613281 9.847656 -11.976562 9.890625 -12.28125 C 9.929688 -12.582031 9.929688 -12.890625 9.890625 -13.203125 C 9.804688 -13.535156 9.679688 -13.753906 9.515625 -13.859375 C 9.347656 -13.972656 9.117188 -14.03125 8.828125 -14.03125 C 7.640625 -14.03125 6.71875 -13.507812 6.0625 -12.46875 C 5.40625 -11.4375 5.078125 -9.785156 5.078125 -7.515625 C 5.078125 -5.535156 5.441406 -4.019531 6.171875 -2.96875 C 6.910156 -1.925781 8.039062 -1.40625 9.5625 -1.40625 C 10.476562 -1.40625 11.21875 -1.570312 11.78125 -1.90625 C 12.351562 -2.238281 12.90625 -2.738281 13.4375 -3.40625 L 13.734375 -3.171875 C 13.242188 -2.015625 12.488281 -1.125 11.46875 -0.5 C 10.457031 0.125 9.253906 0.4375 7.859375 0.4375 Z M 7.859375 0.4375 "/></g></g></g><g fill="#fff3e4" fill-opacity="1"><g transform="translate(131.192397, 207.118522)"><g><path d="M 6.15625 0.4375 C 4.90625 0.4375 3.929688 0.125 3.234375 -0.5 C 2.546875 -1.125 2.203125 -2.117188 2.203125 -3.484375 L 2.203125 -13.53125 L 0.171875 -13.53125 L 0.171875 -13.828125 L 0.875 -13.9375 C 1.488281 -14.070312 2.015625 -14.265625 2.453125 -14.515625 C 2.890625 -14.773438 3.320312 -15.117188 3.75 -15.546875 L 6.15625 -18.21875 L 6.453125 -18.21875 L 6.375 -14.109375 L 9.65625 -14.109375 L 9.65625 -13.53125 L 6.34375 -13.53125 L 6.34375 -2.96875 C 6.34375 -2.28125 6.492188 -1.757812 6.796875 -1.40625 C 7.097656 -1.050781 7.484375 -0.875 7.953125 -0.875 C 8.359375 -0.875 8.71875 -0.976562 9.03125 -1.1875 C 9.34375 -1.394531 9.660156 -1.675781 9.984375 -2.03125 L 10.265625 -1.734375 C 9.878906 -1.066406 9.34375 -0.535156 8.65625 -0.140625 C 7.96875 0.242188 7.132812 0.4375 6.15625 0.4375 Z M 6.15625 0.4375 "/></g></g></g><g fill="#fff3e4" fill-opacity="1"><g transform="translate(141.785483, 207.118522)"><g><path d="M 4.109375 -16.078125 C 3.441406 -16.078125 2.878906 -16.285156 2.421875 -16.703125 C 1.960938 -17.128906 1.734375 -17.664062 1.734375 -18.3125 C 1.734375 -18.976562 1.960938 -19.515625 2.421875 -19.921875 C 2.878906 -20.335938 3.441406 -20.546875 4.109375 -20.546875 C 4.773438 -20.546875 5.332031 -20.335938 5.78125 -19.921875 C 6.226562 -19.515625 6.453125 -18.976562 6.453125 -18.3125 C 6.453125 -17.664062 6.226562 -17.128906 5.78125 -16.703125 C 5.332031 -16.285156 4.773438 -16.078125 4.109375 -16.078125 Z M 0.640625 0 L 0.640625 -0.296875 L 1.0625 -0.40625 C 1.445312 -0.53125 1.710938 -0.707031 1.859375 -0.9375 C 2.003906 -1.175781 2.078125 -1.488281 2.078125 -1.875 L 2.078125 -11.0625 C 2.078125 -11.46875 2.003906 -11.773438 1.859375 -11.984375 C 1.710938 -12.191406 1.445312 -12.332031 1.0625 -12.40625 L 0.640625 -12.5 L 0.640625 -12.796875 L 6.015625 -14.53125 L 6.3125 -14.234375 L 6.21875 -10.0625 L 6.21875 -1.84375 C 6.21875 -1.457031 6.289062 -1.144531 6.4375 -0.90625 C 6.582031 -0.675781 6.84375 -0.5 7.21875 -0.375 L 7.515625 -0.296875 L 7.515625 0 Z M 0.640625 0 "/></g></g></g><g fill="#fff3e4" fill-opacity="1"><g transform="translate(150.001722, 207.118522)"><g><path d="M 8.015625 0.4375 C 6.523438 0.4375 5.234375 0.128906 4.140625 -0.484375 C 3.046875 -1.097656 2.195312 -1.972656 1.59375 -3.109375 C 1 -4.242188 0.703125 -5.570312 0.703125 -7.09375 C 0.703125 -8.625 1.019531 -9.945312 1.65625 -11.0625 C 2.289062 -12.175781 3.160156 -13.035156 4.265625 -13.640625 C 5.367188 -14.242188 6.617188 -14.546875 8.015625 -14.546875 C 9.398438 -14.546875 10.640625 -14.25 11.734375 -13.65625 C 12.828125 -13.0625 13.691406 -12.207031 14.328125 -11.09375 C 14.960938 -9.976562 15.28125 -8.644531 15.28125 -7.09375 C 15.28125 -5.550781 14.984375 -4.21875 14.390625 -3.09375 C 13.796875 -1.96875 12.953125 -1.097656 11.859375 -0.484375 C 10.773438 0.128906 9.492188 0.4375 8.015625 0.4375 Z M 8.015625 -0.140625 C 8.691406 -0.140625 9.234375 -0.335938 9.640625 -0.734375 C 10.054688 -1.128906 10.359375 -1.820312 10.546875 -2.8125 C 10.734375 -3.8125 10.828125 -5.222656 10.828125 -7.046875 C 10.828125 -8.878906 10.734375 -10.296875 10.546875 -11.296875 C 10.359375 -12.296875 10.054688 -12.988281 9.640625 -13.375 C 9.234375 -13.769531 8.691406 -13.96875 8.015625 -13.96875 C 7.328125 -13.96875 6.769531 -13.769531 6.34375 -13.375 C 5.925781 -12.988281 5.625 -12.296875 5.4375 -11.296875 C 5.257812 -10.296875 5.171875 -8.878906 5.171875 -7.046875 C 5.171875 -5.222656 5.257812 -3.8125 5.4375 -2.8125 C 5.625 -1.820312 5.925781 -1.128906 6.34375 -0.734375 C 6.769531 -0.335938 7.328125 -0.140625 8.015625 -0.140625 Z M 8.015625 -0.140625 "/></g></g></g><g fill="#fff3e4" fill-opacity="1"><g transform="translate(165.99405, 207.118522)"><g><path d="M 0.59375 0 L 0.59375 -0.296875 L 1 -0.40625 C 1.6875 -0.601562 2.03125 -1.082031 2.03125 -1.84375 L 2.03125 -11.03125 C 2.03125 -11.457031 1.957031 -11.773438 1.8125 -11.984375 C 1.675781 -12.191406 1.414062 -12.332031 1.03125 -12.40625 L 0.59375 -12.53125 L 0.59375 -12.828125 L 5.609375 -14.53125 L 5.890625 -14.234375 L 6.140625 -12.46875 C 6.816406 -13.070312 7.582031 -13.566406 8.4375 -13.953125 C 9.300781 -14.347656 10.15625 -14.546875 11 -14.546875 C 12.289062 -14.546875 13.285156 -14.191406 13.984375 -13.484375 C 14.679688 -12.785156 15.03125 -11.710938 15.03125 -10.265625 L 15.03125 -1.8125 C 15.03125 -1.050781 15.398438 -0.570312 16.140625 -0.375 L 16.40625 -0.296875 L 16.40625 0 L 9.484375 0 L 9.484375 -0.296875 L 9.859375 -0.40625 C 10.546875 -0.625 10.890625 -1.101562 10.890625 -1.84375 L 10.890625 -11.203125 C 10.890625 -12.460938 10.265625 -13.09375 9.015625 -13.09375 C 8.148438 -13.09375 7.207031 -12.660156 6.1875 -11.796875 L 6.1875 -1.8125 C 6.1875 -1.050781 6.53125 -0.570312 7.21875 -0.375 L 7.484375 -0.296875 L 7.484375 0 Z M 0.59375 0 "/></g></g></g><g fill="#fff3e4" fill-opacity="1"><g transform="translate(182.954719, 207.118522)"><g/></g></g><g fill="#fff3e4" fill-opacity="1"><g transform="translate(189.351646, 207.118522)"><g><path d="M 1.03125 0 L 1.03125 -0.296875 L 2 -0.59375 C 2.351562 -0.6875 2.609375 -0.875 2.765625 -1.15625 C 2.921875 -1.4375 3 -1.773438 3 -2.171875 L 3 -16.28125 C 2.78125 -16.75 2.601562 -17.097656 2.46875 -17.328125 C 2.34375 -17.566406 2.203125 -17.769531 2.046875 -17.9375 C 1.890625 -18.101562 1.675781 -18.316406 1.40625 -18.578125 L 0.90625 -19.078125 L 0.90625 -19.359375 L 6.109375 -19.359375 L 15.84375 -6.078125 L 15.84375 -17.140625 C 15.84375 -17.523438 15.78125 -17.875 15.65625 -18.1875 C 15.53125 -18.5 15.269531 -18.707031 14.875 -18.8125 L 13.90625 -19.078125 L 13.90625 -19.359375 L 18.109375 -19.359375 L 18.109375 -19.078125 L 17.3125 -18.8125 C 16.957031 -18.695312 16.738281 -18.488281 16.65625 -18.1875 C 16.582031 -17.894531 16.546875 -17.554688 16.546875 -17.171875 L 16.546875 0.09375 L 14.90625 0.09375 L 3.703125 -15.3125 L 3.703125 -2.171875 C 3.703125 -1.773438 3.757812 -1.441406 3.875 -1.171875 C 3.988281 -0.898438 4.234375 -0.707031 4.609375 -0.59375 L 5.484375 -0.296875 L 5.484375 0 Z M 1.03125 0 "/></g></g></g><g fill="#fff3e4" fill-opacity="1"><g transform="translate(208.513094, 207.118522)"><g><path d="M 8.015625 0.4375 C 6.523438 0.4375 5.234375 0.128906 4.140625 -0.484375 C 3.046875 -1.097656 2.195312 -1.972656 1.59375 -3.109375 C 1 -4.242188 0.703125 -5.570312 0.703125 -7.09375 C 0.703125 -8.625 1.019531 -9.945312 1.65625 -11.0625 C 2.289062 -12.175781 3.160156 -13.035156 4.265625 -13.640625 C 5.367188 -14.242188 6.617188 -14.546875 8.015625 -14.546875 C 9.398438 -14.546875 10.640625 -14.25 11.734375 -13.65625 C 12.828125 -13.0625 13.691406 -12.207031 14.328125 -11.09375 C 14.960938 -9.976562 15.28125 -8.644531 15.28125 -7.09375 C 15.28125 -5.550781 14.984375 -4.21875 14.390625 -3.09375 C 13.796875 -1.96875 12.953125 -1.097656 11.859375 -0.484375 C 10.773438 0.128906 9.492188 0.4375 8.015625 0.4375 Z M 8.015625 -0.140625 C 8.691406 -0.140625 9.234375 -0.335938 9.640625 -0.734375 C 10.054688 -1.128906 10.359375 -1.820312 10.546875 -2.8125 C 10.734375 -3.8125 10.828125 -5.222656 10.828125 -7.046875 C 10.828125 -8.878906 10.734375 -10.296875 10.546875 -11.296875 C 10.359375 -12.296875 10.054688 -12.988281 9.640625 -13.375 C 9.234375 -13.769531 8.691406 -13.96875 8.015625 -13.96875 C 7.328125 -13.96875 6.769531 -13.769531 6.34375 -13.375 C 5.925781 -12.988281 5.625 -12.296875 5.4375 -11.296875 C 5.257812 -10.296875 5.171875 -8.878906 5.171875 -7.046875 C 5.171875 -5.222656 5.257812 -3.8125 5.4375 -2.8125 C 5.625 -1.820312 5.925781 -1.128906 6.34375 -0.734375 C 6.769531 -0.335938 7.328125 -0.140625 8.015625 -0.140625 Z M 8.015625 -0.140625 "/></g></g></g><g fill="#fff3e4" fill-opacity="1"><g transform="translate(224.505421, 207.118522)"><g><path d="M 6.15625 0.4375 C 4.90625 0.4375 3.929688 0.125 3.234375 -0.5 C 2.546875 -1.125 2.203125 -2.117188 2.203125 -3.484375 L 2.203125 -13.53125 L 0.171875 -13.53125 L 0.171875 -13.828125 L 0.875 -13.9375 C 1.488281 -14.070312 2.015625 -14.265625 2.453125 -14.515625 C 2.890625 -14.773438 3.320312 -15.117188 3.75 -15.546875 L 6.15625 -18.21875 L 6.453125 -18.21875 L 6.375 -14.109375 L 9.65625 -14.109375 L 9.65625 -13.53125 L 6.34375 -13.53125 L 6.34375 -2.96875 C 6.34375 -2.28125 6.492188 -1.757812 6.796875 -1.40625 C 7.097656 -1.050781 7.484375 -0.875 7.953125 -0.875 C 8.359375 -0.875 8.71875 -0.976562 9.03125 -1.1875 C 9.34375 -1.394531 9.660156 -1.675781 9.984375 -2.03125 L 10.265625 -1.734375 C 9.878906 -1.066406 9.34375 -0.535156 8.65625 -0.140625 C 7.96875 0.242188 7.132812 0.4375 6.15625 0.4375 Z M 6.15625 0.4375 "/></g></g></g><g fill="#fff3e4" fill-opacity="1"><g transform="translate(235.098507, 207.118522)"><g/></g></g><g fill="#fff3e4" fill-opacity="1"><g transform="translate(241.495433, 207.118522)"><g><path d="M 0.640625 0 L 0.640625 -0.296875 L 1.03125 -0.375 C 1.394531 -0.476562 1.6875 -0.648438 1.90625 -0.890625 C 2.125 -1.140625 2.234375 -1.457031 2.234375 -1.84375 C 2.234375 -2.570312 2.238281 -3.289062 2.25 -4 C 2.257812 -4.71875 2.265625 -5.4375 2.265625 -6.15625 L 2.265625 -13.53125 L 0.609375 -13.53125 L 0.609375 -13.84375 L 1.265625 -13.96875 C 1.648438 -14.007812 1.929688 -14.144531 2.109375 -14.375 C 2.285156 -14.613281 2.414062 -14.9375 2.5 -15.34375 C 2.6875 -16.101562 2.972656 -16.769531 3.359375 -17.34375 C 3.742188 -17.925781 4.179688 -18.460938 4.671875 -18.953125 C 5.410156 -19.660156 6.195312 -20.15625 7.03125 -20.4375 C 7.863281 -20.71875 8.679688 -20.859375 9.484375 -20.859375 C 10.265625 -20.859375 10.976562 -20.695312 11.625 -20.375 C 12.269531 -20.050781 12.59375 -19.519531 12.59375 -18.78125 C 12.59375 -18.25 12.4375 -17.832031 12.125 -17.53125 C 11.8125 -17.226562 11.367188 -17.078125 10.796875 -17.078125 C 10.328125 -17.078125 9.894531 -17.203125 9.5 -17.453125 C 9.113281 -17.710938 8.734375 -18.164062 8.359375 -18.8125 L 7.953125 -19.3125 C 7.734375 -19.582031 7.515625 -19.710938 7.296875 -19.703125 C 7.085938 -19.691406 6.9375 -19.53125 6.84375 -19.21875 C 6.695312 -18.53125 6.585938 -17.726562 6.515625 -16.8125 C 6.453125 -15.894531 6.421875 -14.992188 6.421875 -14.109375 L 9.71875 -14.109375 L 9.71875 -13.53125 L 6.421875 -13.53125 L 6.421875 -1.90625 C 6.421875 -1.164062 6.8125 -0.6875 7.59375 -0.46875 L 8.328125 -0.296875 L 8.328125 0 Z M 0.640625 0 "/></g></g></g><g fill="#fff3e4" fill-opacity="1"><g transform="translate(251.560328, 207.118522)"><g><path d="M 8.015625 0.4375 C 6.523438 0.4375 5.234375 0.128906 4.140625 -0.484375 C 3.046875 -1.097656 2.195312 -1.972656 1.59375 -3.109375 C 1 -4.242188 0.703125 -5.570312 0.703125 -7.09375 C 0.703125 -8.625 1.019531 -9.945312 1.65625 -11.0625 C 2.289062 -12.175781 3.160156 -13.035156 4.265625 -13.640625 C 5.367188 -14.242188 6.617188 -14.546875 8.015625 -14.546875 C 9.398438 -14.546875 10.640625 -14.25 11.734375 -13.65625 C 12.828125 -13.0625 13.691406 -12.207031 14.328125 -11.09375 C 14.960938 -9.976562 15.28125 -8.644531 15.28125 -7.09375 C 15.28125 -5.550781 14.984375 -4.21875 14.390625 -3.09375 C 13.796875 -1.96875 12.953125 -1.097656 11.859375 -0.484375 C 10.773438 0.128906 9.492188 0.4375 8.015625 0.4375 Z M 8.015625 -0.140625 C 8.691406 -0.140625 9.234375 -0.335938 9.640625 -0.734375 C 10.054688 -1.128906 10.359375 -1.820312 10.546875 -2.8125 C 10.734375 -3.8125 10.828125 -5.222656 10.828125 -7.046875 C 10.828125 -8.878906 10.734375 -10.296875 10.546875 -11.296875 C 10.359375 -12.296875 10.054688 -12.988281 9.640625 -13.375 C 9.234375 -13.769531 8.691406 -13.96875 8.015625 -13.96875 C 7.328125 -13.96875 6.769531 -13.769531 6.34375 -13.375 C 5.925781 -12.988281 5.625 -12.296875 5.4375 -11.296875 C 5.257812 -10.296875 5.171875 -8.878906 5.171875 -7.046875 C 5.171875 -5.222656 5.257812 -3.8125 5.4375 -2.8125 C 5.625 -1.820312 5.925781 -1.128906 6.34375 -0.734375 C 6.769531 -0.335938 7.328125 -0.140625 8.015625 -0.140625 Z M 8.015625 -0.140625 "/></g></g></g><g fill="#fff3e4" fill-opacity="1"><g transform="translate(267.552656, 207.118522)"><g><path d="M 5.890625 0.4375 C 5.128906 0.4375 4.429688 0.289062 3.796875 0 C 3.160156 -0.289062 2.660156 -0.765625 2.296875 -1.421875 C 1.941406 -2.078125 1.773438 -2.941406 1.796875 -4.015625 L 1.875 -11.5625 C 1.875 -12.007812 1.796875 -12.332031 1.640625 -12.53125 C 1.484375 -12.726562 1.238281 -12.863281 0.90625 -12.9375 L 0.5625 -13.0625 L 0.5625 -13.34375 L 5.8125 -14.375 L 6.109375 -14.078125 L 5.953125 -9.921875 L 5.953125 -2.84375 C 5.953125 -2.21875 6.132812 -1.757812 6.5 -1.46875 C 6.863281 -1.175781 7.316406 -1.03125 7.859375 -1.03125 C 8.410156 -1.03125 8.898438 -1.109375 9.328125 -1.265625 C 9.765625 -1.421875 10.195312 -1.65625 10.625 -1.96875 L 10.734375 -11.53125 C 10.734375 -11.976562 10.664062 -12.296875 10.53125 -12.484375 C 10.394531 -12.671875 10.140625 -12.800781 9.765625 -12.875 L 9.484375 -12.96875 L 9.484375 -13.265625 L 14.609375 -14.375 L 14.90625 -14.078125 L 14.8125 -9.921875 L 14.8125 -1.96875 C 14.8125 -1.539062 14.867188 -1.207031 14.984375 -0.96875 C 15.109375 -0.726562 15.363281 -0.53125 15.75 -0.375 L 16.046875 -0.296875 L 16.046875 0 L 10.921875 0.296875 L 10.65625 -1.4375 C 10.007812 -0.90625 9.304688 -0.457031 8.546875 -0.09375 C 7.796875 0.257812 6.910156 0.4375 5.890625 0.4375 Z M 5.890625 0.4375 "/></g></g></g><g fill="#fff3e4" fill-opacity="1"><g transform="translate(284.190545, 207.118522)"><g><path d="M 0.59375 0 L 0.59375 -0.296875 L 1 -0.40625 C 1.6875 -0.601562 2.03125 -1.082031 2.03125 -1.84375 L 2.03125 -11.03125 C 2.03125 -11.457031 1.957031 -11.773438 1.8125 -11.984375 C 1.675781 -12.191406 1.414062 -12.332031 1.03125 -12.40625 L 0.59375 -12.53125 L 0.59375 -12.828125 L 5.609375 -14.53125 L 5.890625 -14.234375 L 6.140625 -12.46875 C 6.816406 -13.070312 7.582031 -13.566406 8.4375 -13.953125 C 9.300781 -14.347656 10.15625 -14.546875 11 -14.546875 C 12.289062 -14.546875 13.285156 -14.191406 13.984375 -13.484375 C 14.679688 -12.785156 15.03125 -11.710938 15.03125 -10.265625 L 15.03125 -1.8125 C 15.03125 -1.050781 15.398438 -0.570312 16.140625 -0.375 L 16.40625 -0.296875 L 16.40625 0 L 9.484375 0 L 9.484375 -0.296875 L 9.859375 -0.40625 C 10.546875 -0.625 10.890625 -1.101562 10.890625 -1.84375 L 10.890625 -11.203125 C 10.890625 -12.460938 10.265625 -13.09375 9.015625 -13.09375 C 8.148438 -13.09375 7.207031 -12.660156 6.1875 -11.796875 L 6.1875 -1.8125 C 6.1875 -1.050781 6.53125 -0.570312 7.21875 -0.375 L 7.484375 -0.296875 L 7.484375 0 Z M 0.59375 0 "/></g></g></g><g fill="#fff3e4" fill-opacity="1"><g transform="translate(301.151214, 207.118522)"><g><path d="M 6.8125 0.4375 C 5.65625 0.4375 4.613281 0.179688 3.6875 -0.328125 C 2.769531 -0.847656 2.039062 -1.648438 1.5 -2.734375 C 0.96875 -3.828125 0.703125 -5.222656 0.703125 -6.921875 C 0.703125 -8.640625 1.003906 -10.0625 1.609375 -11.1875 C 2.222656 -12.3125 3.023438 -13.148438 4.015625 -13.703125 C 5.015625 -14.265625 6.101562 -14.546875 7.28125 -14.546875 C 7.957031 -14.546875 8.609375 -14.476562 9.234375 -14.34375 C 9.867188 -14.207031 10.429688 -14.003906 10.921875 -13.734375 L 10.921875 -17.546875 C 10.921875 -17.953125 10.851562 -18.253906 10.71875 -18.453125 C 10.59375 -18.648438 10.328125 -18.789062 9.921875 -18.875 L 9.359375 -18.984375 L 9.359375 -19.28125 L 14.703125 -20.5625 L 15.03125 -20.3125 L 14.90625 -16.203125 L 14.90625 -1.84375 C 14.90625 -1.457031 14.972656 -1.140625 15.109375 -0.890625 C 15.242188 -0.648438 15.5 -0.476562 15.875 -0.375 L 16.140625 -0.296875 L 16.140625 0 L 11.125 0.328125 L 10.859375 -0.734375 C 10.328125 -0.378906 9.722656 -0.0976562 9.046875 0.109375 C 8.378906 0.328125 7.632812 0.4375 6.8125 0.4375 Z M 8.515625 -0.640625 C 9.328125 -0.640625 10.078125 -0.882812 10.765625 -1.375 L 10.765625 -13.03125 C 10.046875 -13.5 9.300781 -13.734375 8.53125 -13.734375 C 7.59375 -13.734375 6.789062 -13.1875 6.125 -12.09375 C 5.46875 -11.007812 5.140625 -9.304688 5.140625 -6.984375 C 5.140625 -4.648438 5.453125 -3.007812 6.078125 -2.0625 C 6.703125 -1.113281 7.515625 -0.640625 8.515625 -0.640625 Z M 8.515625 -0.640625 "/></g></g></g></svg>